<svg id="svg" version="1.1" xmlns="http://www.w3.org/2000/svg" xmlns:xlink="http://www.w3.org/1999/xlink" width="400" height="369.7705802968961" viewBox="0, 0, 400,369.7705802968961"><g id="svgg"><path id="path0" d="M150.443 76.407 C 100.337 80.025,76.936 139.767,110.832 177.530 C 112.724 179.637,113.090 179.849,113.090 178.833 C 113.090 173.927,124.835 140.221,128.911 133.431 C 134.187 124.640,144.721 117.405,155.331 115.285 C 160.778 114.196,162.223 114.170,216.983 114.167 C 260.752 114.164,270.277 114.100,271.390 113.798 C 276.405 112.440,285.430 106.991,289.699 102.743 C 295.670 96.800,302.440 85.372,305.112 76.721 L 305.300 76.113 229.370 76.152 C 187.609 76.173,152.092 76.288,150.443 76.407 M164.967 153.509 C 164.674 154.362,162.051 161.903,159.140 170.266 C 156.228 178.628,153.846 185.521,153.846 185.583 C 153.846 185.645,171.329 185.695,192.698 185.695 L 231.549 185.695 230.863 187.247 C 229.044 191.363,221.446 206.362,220.286 208.125 C 216.654 213.648,210.772 217.200,201.910 219.221 C 199.362 219.802,198.913 219.813,169.915 219.959 L 140.504 220.108 127.747 256.545 C 120.731 276.586,115.019 293.131,115.053 293.313 C 115.254 294.389,171.133 261.993,197.706 245.394 C 248.218 213.841,280.601 187.026,285.448 172.740 C 288.834 162.760,278.264 153.941,260.884 152.245 C 258.926 152.053,242.420 151.957,211.719 151.957 L 165.502 151.957 164.967 153.509 " stroke="none" fill="#a41c24" fill-rule="evenodd"></path><path id="path1" d="" stroke="none" fill="#a42424" fill-rule="evenodd"></path><path id="path2" d="" stroke="none" fill="#a81c24" fill-rule="evenodd"></path><path id="path3" d="" stroke="none" fill="#a81c24" fill-rule="evenodd"></path><path id="path4" d="" stroke="none" fill="#a81c24" fill-rule="evenodd"></path></g></svg>